<?xml version="1.0" standalone="no"?><!DOCTYPE svg PUBLIC "-//W3C//DTD SVG 1.1//EN" "http://www.w3.org/Graphics/SVG/1.1/DTD/svg11.dtd"><svg t="1559630654396" class="icon" style="" viewBox="0 0 1024 1024" version="1.1" xmlns="http://www.w3.org/2000/svg" p-id="1856" xmlns:xlink="http://www.w3.org/1999/xlink" width="200" height="200"><defs><style type="text/css"></style></defs><path d="M954.014 510.695c-31.51 0.303-185.995-88.917-190.874-93.568-11.734-11.188-7.3-25.115 4.673-27.02s79.203-9.898 79.203-9.898c-41.318-110.437-133.518-198.636-254.527-227.223-193.138-45.643-392.87 83.827-437.013 281.424-0.38 1.685-3.047 21.83-19.045 21.191-10.83-0.432-46.309-14.539-59.136-20.556-14.644-6.868-18.601-5.094-14.16-27.201 50.235-251.201 307.497-420.497 554.419-362.572 204.919 48.063 347.27 225.878 362.91 428.477 2.619 27.151-11.203 36.797-26.451 36.944zM631.498 565.754c20.284 0 36.729 16.427 36.729 36.727 0 20.265-16.445 36.729-36.729 36.729l-73.456 0 0 45.909c0 25.359-20.551 45.911-45.911 45.911-25.358 0-45.91-20.551-45.91-45.911l0-45.909-73.456 0c-20.284 0-36.727-16.465-36.727-36.729 0-20.302 16.444-36.727 36.727-36.727l73.456 0 0-36.73-73.456 0c-20.284 0-36.727-16.461-36.727-36.726 0-20.3 16.444-36.729 36.727-36.729l73.456 0 0-2.512-81.508-81.491c-14.445-14.455-14.445-37.875 0-52.313s37.858-14.437 52.304 0l74.497 74.478 74.786-74.784c14.444-14.419 37.859-14.419 52.303 0 14.446 14.454 14.446 37.877 0 52.313l-80.558 80.559 0 3.749 73.456 0c20.284 0 36.729 16.429 36.729 36.729 0 20.267-16.445 36.726-36.729 36.726l-73.456 0 0 36.73 73.456 0zM263.027 617.582c16.112 10.302 12.229 30.994-5.477 32.836s-73.153 6.725-73.153 6.725c43.956 103.014 133.043 184.236 248.233 211.442 193.137 45.623 390.651-77.582 434.806-275.179 0.906-4.054 0.877-3.418 2.457-12.122s4.139-21.945 21.142-16.052 58.475 18.085 71.394 21.539 11.465 8.548 9.846 20.553c-0.493 3.651-1.238 6.994-2.017 10.509-57.81 256.921-309.451 417.196-562.049 357.924-204.677-48.01-346.947-225.429-362.865-427.724-2.159-34.762 22.4-41.857 47.505-28.577 19.75 10.447 154.064 87.822 170.176 98.124z" p-id="1857" fill="#d81e06"></path></svg>