<?xml version="1.0" standalone="no"?><!DOCTYPE svg PUBLIC "-//W3C//DTD SVG 1.1//EN" "http://www.w3.org/Graphics/SVG/1.1/DTD/svg11.dtd"><svg class="icon" width="64px" height="64.00px" viewBox="0 0 1024 1024" version="1.1" xmlns="http://www.w3.org/2000/svg"><path d="M811.463652 2.274393H212.524976C97.247362 2.274393 2.916909 96.582102 2.916909 211.859716v402.749528c132.722209 77.886591 309.124137 125.375919 502.731848 125.375919 199.839549 0 381.358861-50.593874 515.422962-132.995136V211.859716C1021.083091 96.582102 926.775381 2.274393 811.463652 2.274393z" fill="#FD2821" /><path d="M505.660129 742.259556c-186.83002 0-365.767896-44.634964-503.880416-125.682962l-1.137197-0.659574V211.859716A212.485174 212.485174 0 0 1 212.502232 0h598.96142a212.485174 212.485174 0 0 1 211.859716 211.859716v396.403971l-1.137196 0.670946c-139.795571 85.972059-323.304977 133.324923-516.526043 133.324923zM5.191302 613.31284c137.282367 80.217844 315.003443 124.39793 500.468827 124.39793 191.936033 0 374.137663-46.86387 513.148569-131.994403V211.859716A207.925016 207.925016 0 0 0 811.463652 4.548786H212.524976A207.925016 207.925016 0 0 0 5.191302 211.859716z" fill="#C54953" /><path d="M2.916909 614.609244v197.792595c0 115.129778 94.19399 209.323768 209.323768 209.323768h599.518646c115.129778 0 209.323768-94.19399 209.323768-209.323768V606.990027c-134.064101 82.401262-315.572041 132.995136-515.422962 132.995136-193.607712 0-370.00964-47.477956-502.74322-125.375919z" fill="#FFFFFF" /><path d="M811.759323 1024H212.252049A212.212247 212.212247 0 0 1 0.642516 812.401839V610.640428l3.41159 2.012838c137.41883 80.649979 315.549297 125.09162 501.583279 125.09162 192.436399 0 375.058792-47.114053 514.240278-132.653977l3.411589-2.126557v209.437487a212.212247 212.212247 0 0 1-211.529929 211.598161zM5.191302 618.57806v193.823779a207.663461 207.663461 0 0 0 207.060747 207.049375h599.507274a207.663461 207.663461 0 0 0 207.049375-207.049375V611.049819c-139.44304 84.641539-321.485463 131.209737-513.148569 131.209737-185.283433 0-362.868045-43.873043-500.468827-123.681496z" fill="#C54953" /><path d="M95.132177 190.059658m18.957066 0l201.784155 0q18.957066 0 18.957066 18.957067l0-0.011372q0 18.957066-18.957066 18.957066l-201.784155 0q-18.957066 0-18.957066-18.957066l0 0.011372q0-18.957066 18.957066-18.957067Z" fill="#FFFFFF" /><path d="M424.623504 235.752216m0 18.957066l0 162.152855q0 18.957066-18.957067 18.957067l0.011372 0q-18.957066 0-18.957066-18.957067l0-162.152855q0-18.957066 18.957066-18.957066l-0.011372 0q18.957066 0 18.957067 18.957066Z" fill="#FFFFFF" /><path d="M779.277719 269.100432m13.40467 13.404671l52.685902 52.685902q13.40467 13.40467 0 26.80934l0.008041-0.008041q-13.40467 13.40467-26.80934 0l-52.685902-52.685902q-13.40467-13.40467 0-26.809341l-0.008041 0.008042q13.40467-13.40467 26.80934 0Z" fill="#FFFFFF" /><path d="M254.385181 491.541834h15.590965l-12.884437 67.856518q-1.899118 10.757879 2.956711 16.387002 4.662506 5.924794 13.760078 5.924794a24.392866 24.392866 0 0 0 16.148191-5.924794q6.823179-5.629123 9.040712-16.387002l12.884437-67.856518h15.590965l-13.225596 69.585057q-3.41159 16.60307-15.511361 26.348844a43.45228 43.45228 0 0 1-27.963663 10.234769q-15.420385-0.147836-23.881127-10.234769-8.733669-9.745774-5.685983-26.348844zM336.627235 521.859494h14.783555l-1.512471 7.960376h0.284299a28.566377 28.566377 0 0 1 20.731093-8.881505 20.469538 20.469538 0 0 1 15.397641 6.572996q6.209093 6.641228 4.128023 19.491549l-9.461475 49.809208h-14.783555l8.472114-44.61222q1.489727-7.8694-1.819514-11.986052t-9.575195-4.184883a16.762277 16.762277 0 0 0-11.235502 4.184883q-4.946805 4.116651-6.436532 11.986052l-8.472115 44.61222h-14.783555zM410.397175 521.859494h14.783555l-14.237701 74.92988h-14.783555z m5.754214-30.31766h14.783555l-2.865735 15.090598h-14.783555zM430.411834 559.250516q2.274393-11.838216 5.356196-18.195144a34.206872 34.206872 0 0 1 8.051351-10.462209 36.390289 36.390289 0 0 1 9.734403-6.709459 34.411567 34.411567 0 0 1 14.317304-2.956711q8.642694 0.147836 13.475779 2.956711a20.003287 20.003287 0 0 1 6.902783 6.709459 19.002554 19.002554 0 0 1 4.218999 10.462209q0.557226 6.356929-1.694422 18.195144t-5.196989 18.04731a33.479066 33.479066 0 0 1-8.221931 10.780623 30.704307 30.704307 0 0 1-4.071163 3.252382 20.674233 20.674233 0 0 1-5.310708 3.104546 32.626169 32.626169 0 0 1-14.658464 3.252383q-8.369767-0.147836-13.13462-3.252383a21.1746 21.1746 0 0 1-7.255314-6.356928 23.380761 23.380761 0 0 1-4.025675-10.75788q-0.739178-6.231837 1.512471-18.070053z m45.612953 0.147836a70.005819 70.005819 0 0 0 1.512472-11.690381 11.644893 11.644893 0 0 0-1.717167-6.209093 8.267419 8.267419 0 0 0-4.04842-3.968816 13.851054 13.851054 0 0 0-6.766319-1.512471 17.785754 17.785754 0 0 0-7.198454 1.512471 17.217156 17.217156 0 0 0-5.685983 3.968816 22.33454 22.33454 0 0 0-3.9347 6.209093 62.284255 62.284255 0 0 0-3.036315 11.553917 55.449703 55.449703 0 0 0-1.319148 11.371966 16.182307 16.182307 0 0 0 1.512472 6.493392 13.646359 13.646359 0 0 0 4.207627 3.832352 13.430291 13.430291 0 0 0 6.607112 1.592076 16.875997 16.875997 0 0 0 7.357661-1.592076 18.195145 18.195145 0 0 0 5.526776-3.832352 19.002554 19.002554 0 0 0 4.128023-6.493392 70.654021 70.654021 0 0 0 2.820247-11.235502zM510.015592 521.859494h14.783555l-1.512471 7.960376h0.284299a28.566377 28.566377 0 0 1 20.651489-8.904249 20.469538 20.469538 0 0 1 15.397641 6.572996q6.220465 6.641228 4.128024 19.491549l-9.461476 49.809208h-14.783555l8.472115-44.61222q1.489727-7.8694-1.819515-11.986052t-9.575195-4.184883a16.773649 16.773649 0 0 0-11.235502 4.184883q-4.946805 4.116651-6.436532 11.986052l-8.472114 44.61222h-14.783555zM590.472248 491.541834h37.243186a55.154032 55.154032 0 0 1 11.485685 1.137197 24.597561 24.597561 0 0 1 10.234769 6.209093 19.457433 19.457433 0 0 1 5.981654 10.109677 31.079582 31.079582 0 0 1 0.318415 15.010995q-2.274393 11.69038-12.088399 21.299691-10.177909 10.109677-26.155521 10.393976h-23.619572l-7.801168 41.075539h-15.590965z m6.265952 49.092775h23.062346q8.710926-0.147836 14.089866-5.481287a22.141217 22.141217 0 0 0 6.356928-11.553917 19.696244 19.696244 0 0 0 0-8.881505 9.995958 9.995958 0 0 0-3.968816-5.128757 16.682673 16.682673 0 0 0-10.5873-2.956711h-22.505119zM692.831308 590.148147h-0.284299a16.159563 16.159563 0 0 1-7.414521 5.685982 32.410102 32.410102 0 0 1-12.065655 1.876375q-12.247607-0.147836-17.637919-6.641228-5.776958-6.356929-3.900584-16.239167a26.587655 26.587655 0 0 1 9.097572-15.670568q7.278058-6.345557 19.013927-6.493393H700.029763l1.489727-7.8694q2.012838-9.89361-13.202852-9.597939a28.29345 28.29345 0 0 0-8.892877 1.137197 13.987517 13.987517 0 0 0-6.095373 4.617018l-9.859494-9.017969q10.53044-11.258246 26.84921-10.973946 13.851054-0.147836 21.06088 5.344824t4.719366 19.332341l-9.723031 51.173844h-14.783555z m4.776226-25.120672h-17.637918q-12.895809 0.284299-14.408281 9.017968a6.720832 6.720832 0 0 0 2.08107 6.493393q2.615552 2.956711 9.95047 2.956711 9.211292 0.147836 13.475779-2.274393 3.911956-2.376741 5.515403-10.826111zM725.321014 521.859494h15.636452l7.380406 52.481621h0.284299l27.292717-52.481621h15.659196l-48.797103 90.441241q-4.639762 8.44937-10.610044 11.690381a27.690736 27.690736 0 0 1-12.816205 3.115918h-4.867201l2.706527-14.214957h4.298603a11.269618 11.269618 0 0 0 5.685983-1.592075 11.428825 11.428825 0 0 0 4.389579-4.912689l6.402416-12.509162z" fill="#FFFFFF" /><path d="M704.078182 181.803611m16.921485 0l0 0q16.921485 0 16.921484 16.921485l0 220.38869q0 16.921485-16.921484 16.921485l0 0q-16.921485 0-16.921485-16.921485l0-220.38869q0-16.921485 16.921485-16.921485Z" fill="#FFFFFF" /><path d="M736.874931 179.915865a19.013926 19.013926 0 0 0-26.803723 0.352531l-73.917775 75.896497v-44.816915a18.752371 18.752371 0 0 0-1.307776-6.82318 19.013926 19.013926 0 0 0-18.445328-14.669835H439.509406l-8.836017-8.597206a19.013926 19.013926 0 0 0-26.803722 0.352531 19.013926 19.013926 0 0 0 0.352531 26.803723l14.317304 13.942029a18.888835 18.888835 0 0 0 13.646359 5.333452c0.466251 0 0.932501 0.068232 1.410123 0.068232h164.643316v67.333407l-15.033738 15.431757-52.151834-52.151833a18.763743 18.763743 0 0 0-3.616285-2.797504 19.002554 19.002554 0 0 0-26.462563 0.307043l-65.923284 65.866424a19.013926 19.013926 0 0 0 0 26.803723 19.013926 19.013926 0 0 0 26.803722 0l52.868268-52.868268 53.607445 53.584702a18.740999 18.740999 0 0 0 6.925527 4.378206 19.025298 19.025298 0 0 0 22.357284-3.559425l0.625458-0.648202v45.237679a2.911223 2.911223 0 0 1-2.274393 3.218266l-19.559781 0.261555A19.013926 19.013926 0 0 0 557.698243 417.351132a19.013926 19.013926 0 0 0 19.195878 18.706883l37.527486-0.488995c0.488995 0 0.977989 0 1.466983-0.090975s0.875641 0.068232 1.319148 0.068231a19.013926 19.013926 0 0 0 18.957067-18.957066v-106.100438l101.074028-103.780556a19.013926 19.013926 0 0 0-0.363902-26.792351zM935.691002 220.763965h-15.807032v-26.508051a19.013926 19.013926 0 0 0-18.957066-18.979811 19.013926 19.013926 0 0 0-18.957066 18.979811v26.508051h-105.759279a19.013926 19.013926 0 0 0-18.957066 18.957066 19.013926 19.013926 0 0 0 18.957066 18.900207h105.759279v139.545388a2.899851 2.899851 0 0 1 0 0.363903v0.238811a2.911223 2.911223 0 0 1-2.274393 2.638296 2.797503 2.797503 0 0 1-0.352531 0h-24.643049a19.013926 19.013926 0 0 0-18.957067 18.957066 19.013926 19.013926 0 0 0 18.957067 18.957067h45.94274a22.743931 22.743931 0 0 0 19.332341-22.095729V258.621238h15.807032a19.013926 19.013926 0 0 0 18.957066-18.957066 19.013926 19.013926 0 0 0-19.048042-18.900207zM172.825445 320.496102a18.763743 18.763743 0 0 0 1.137196-4.548786h159.98081a18.957066 18.957066 0 1 0 0-37.902761h-236.536881a18.957066 18.957066 0 1 0 0 37.902761h36.538125l-34.855074 90.691424a19.013926 19.013926 0 0 0 7.198454 22.56198 18.911579 18.911579 0 0 0 14.317304 6.584368H321.684472a18.786487 18.786487 0 0 0 4.241743-0.500367 18.752371 18.752371 0 0 0 6.959643-1.034849 19.013926 19.013926 0 0 0 11.610777-24.165426l-20.469538-58.349555a19.013926 19.013926 0 0 0-24.176798-11.565289 19.013926 19.013926 0 0 0-11.610777 24.165427l10.689648 30.465495a2.911223 2.911223 0 0 1-2.274394 3.104547H147.124803a2.911223 2.911223 0 0 1-2.513204-4.002932z" fill="#FFFFFF" /><path d="M588.391178 359.723697L738.394225 205.525531l1.63074 1.58639L590.021918 361.310086zM491.970557 275.200426l1.617094-1.600035 95.084414 96.052169-1.615956 1.600035z" fill="#FF2217" /><path d="M657.259801 783.551163H515.724319l-40.609289 191.049019h136.83886c6.459276 0 13.202852-6.140861 14.976879-13.646358l38.835262-163.756303c1.785399-7.505497-2.046954-13.646359-8.50623-13.646358z" fill="#066B6A" /><path d="M557.129645 783.551163H413.126446c-6.459276 0-13.202852 6.140861-14.976878 13.646358l-38.835262 163.756303c-1.785399 7.505497 2.046954 13.646359 8.50623 13.646358h148.69982z" fill="#0A2F69" /><path d="M476.343202 783.551163h-63.216756c-6.459276 0-13.202852 6.140861-14.976878 13.646358l-38.835262 163.756303c-1.785399 7.505497 2.046954 13.646359 8.50623 13.646358h67.913378z" fill="#E41D21" /><path d="M436.188792 975.16878h-68.379628a8.972481 8.972481 0 0 1-7.209826-3.411589c-2.172045-2.752016-2.842991-6.743576-1.85363-10.939831l38.835262-163.756302c1.842258-7.767052 8.813273-14.078493 15.534105-14.078494h63.921817z m-23.073717-191.049019c-6.231837 0-12.702485 5.924794-14.431025 13.214224l-38.82389 163.74493c-0.921129 3.866468-0.318415 7.505497 1.637563 9.973214a7.858028 7.858028 0 0 0 6.311441 2.968083h67.458499l40.370478-189.911823z" fill="#C54953" /></svg>