<svg xmlns="http://www.w3.org/2000/svg" xmlns:xlink="http://www.w3.org/1999/xlink" viewBox="0 0 26 26">
  <defs>
    <style>
      .cls-1 {
        fill: url(#linear-gradient);
      }
    </style>
    <linearGradient id="linear-gradient" y1="0.5" x2="1" y2="0.5" gradientUnits="objectBoundingBox">
      <stop offset="0" stop-color="#ff4b3e"/>
      <stop offset="1" stop-color="#fb2351"/>
    </linearGradient>
  </defs>
  <path id="Exclusion_2" data-name="Exclusion 2" class="cls-1" d="M-432,23a12.915,12.915,0,0,1-9.193-3.807A12.915,12.915,0,0,1-445,10,12.915,12.915,0,0,1-441.192.808,12.915,12.915,0,0,1-432-3,12.915,12.915,0,0,1-422.807.808,12.915,12.915,0,0,1-419,10a12.915,12.915,0,0,1-3.807,9.193A12.915,12.915,0,0,1-432,23Zm1.851-12.054a1.26,1.26,0,0,0-1.259,1.259v4.665a1.26,1.26,0,0,0,1.259,1.258h4.474a1.26,1.26,0,0,0,1.259-1.258V12.2a1.26,1.26,0,0,0-1.259-1.259Zm-8.176,0a1.26,1.26,0,0,0-1.259,1.259v4.665a1.26,1.26,0,0,0,1.259,1.258h4.473a1.26,1.26,0,0,0,1.259-1.258V12.2a1.26,1.26,0,0,0-1.259-1.259Zm8.176-7.985a1.26,1.26,0,0,0-1.259,1.259V8.883a1.26,1.26,0,0,0,1.259,1.259h4.474a1.26,1.26,0,0,0,1.258-1.259V4.219a1.26,1.26,0,0,0-1.258-1.259Zm-8.176,0a1.26,1.26,0,0,0-1.259,1.259V8.883a1.26,1.26,0,0,0,1.259,1.259h4.473a1.26,1.26,0,0,0,1.259-1.259V4.219a1.26,1.26,0,0,0-1.259-1.259Z" transform="translate(445 3)"/>
</svg>
