<svg xmlns="http://www.w3.org/2000/svg" xmlns:xlink="http://www.w3.org/1999/xlink" viewBox="0 0 31.5 36">
  <defs>
    <style>
      .cls-1 {
        fill: url(#linear-gradient);
      }
    </style>
    <linearGradient id="linear-gradient" y1="0.5" x2="1" y2="0.5" gradientUnits="objectBoundingBox">
      <stop offset="0" stop-color="#6deb4f"/>
      <stop offset="1" stop-color="#0cc13c"/>
    </linearGradient>
  </defs>
  <path id="人员档案" class="cls-1" d="M95.062,36.928H70.411a2.751,2.751,0,0,1-2.738-2.766h.683a2.081,2.081,0,0,0,0-4.161h-.683V28.621h.683a2.078,2.078,0,0,0,0-4.156h-.683V23.079h.683a2.076,2.076,0,0,0,0-4.152h-.683V17.544h.683a2.078,2.078,0,0,0,0-4.155h-.683V12h.683a2.077,2.077,0,0,0,0-4.153h-.683V3.7A2.75,2.75,0,0,1,70.411.928H95.062a2.726,2.726,0,0,1,2.363,1.385H70.411a1.383,1.383,0,0,0,0,2.766H97.8V34.162a2.754,2.754,0,0,1-2.741,2.766ZM83.424,10.013c-1.656,0-3,1.781-3,3.981s1.341,3.981,3,3.981,2.994-1.782,2.994-3.981S85.076,10.013,83.424,10.013ZM88.2,19.881a10.408,10.408,0,0,0-2.864-.828s-1.379,1.489-1.963,1.489-1.961-1.489-1.961-1.489a10.363,10.363,0,0,0-2.863.828c-.738.5-1.065,3.125-1.065,3.125h11.8S89.071,20.465,88.2,19.881ZM69.04,9.926a.687.687,0,0,1-.683.693h-1.37a.691.691,0,0,1,0-1.383h1.37A.685.685,0,0,1,69.04,9.926Zm-2.053,4.848h1.37a.691.691,0,0,1,0,1.383h-1.37a.691.691,0,0,1,0-1.383Zm0,5.536h1.37a.693.693,0,0,1,0,1.385h-1.37a.693.693,0,0,1,0-1.385Zm0,5.538h1.37a.694.694,0,0,1,0,1.387h-1.37a.694.694,0,0,1,0-1.387Zm0,5.539h1.37a.693.693,0,0,1,0,1.386h-1.37a.693.693,0,0,1,0-1.386Z" transform="translate(-66.303 -0.928)"/>
</svg>
