<svg xmlns="http://www.w3.org/2000/svg" xmlns:xlink="http://www.w3.org/1999/xlink" width="40" height="40" viewBox="0 0 40 40">
  <defs>
    <linearGradient id="linear-gradient" y1="0.5" x2="1" y2="0.5" gradientUnits="objectBoundingBox">
      <stop offset="0" stop-color="#9ae41f"/>
      <stop offset="1" stop-color="#5ad927"/>
    </linearGradient>
  </defs>
  <g id="Symbol_37_1" data-name="Symbol 37 – 1" transform="translate(-305 -202)">
    <g id="Group_322" data-name="Group 322">
      <g id="Symbol_22_1" data-name="Symbol 22 – 1" transform="translate(70)">
        <circle id="Ellipse_9" data-name="Ellipse 9" cx="20" cy="20" r="20" transform="translate(235 202)" fill="url(#linear-gradient)"/>
      </g>
      <path id="转换" d="M24.475,57.5l.059,2.991s-.007.188.364.263a.865.865,0,0,0,.6-.151c.129-.1,6.169-3.983,6.169-3.983a1.1,1.1,0,0,0,.569-.9.934.934,0,0,0-.428-.8L25.461,51.26a1.569,1.569,0,0,0-.738-.061c-.365.084-.357.352-.357.352l.056,2.764-6.11.1s-4.828-.566-4.858-2.352c0,0,.175,5.615,5.067,5.533m-.534-14.269-.059-2.994s-.068-.214-.462-.26a.639.639,0,0,0-.481.147L10.81,44.209a1.1,1.1,0,0,0-.569.9.936.936,0,0,0,.428.8l6.358,3.659a.852.852,0,0,0,.618.055c.437-.122.452-.345.452-.345l-.056-2.767,6.141-.1s4.832.566,4.862,2.354c0,0-.175-5.62-5.071-5.538" transform="translate(303.76 171.93)" fill="#fff"/>
    </g>
  </g>
</svg>
