<svg xmlns="http://www.w3.org/2000/svg" viewBox="0 0 15 15">
  <defs>
    <style>
      .cls-1 {
        fill: #666;
      }
    </style>
  </defs>
  <path id="收藏" class="cls-1" d="M81.8,92.369a1.214,1.214,0,0,0-.967-.815l-3.747-.574-1.628-3.487a1.2,1.2,0,0,0-2.187,0L71.638,90.98l-3.75.576a1.213,1.213,0,0,0-.965.816,1.227,1.227,0,0,0,.283,1.245l2.751,2.83-.639,3.925a1.218,1.218,0,0,0,.5,1.2,1.2,1.2,0,0,0,.694.219,1.219,1.219,0,0,0,.584-.149l3.263-1.815,3.276,1.82a1.236,1.236,0,0,0,1.273-.076,1.22,1.22,0,0,0,.494-1.2l-.638-3.925,2.753-2.834A1.234,1.234,0,0,0,81.8,92.369Zm-.957.528-2.93,3.017a.518.518,0,0,0-.137.445l.68,4.187a.194.194,0,0,1-.085.191.307.307,0,0,1-.288.018l-3.5-1.942a.467.467,0,0,0-.452,0l-3.486,1.939a.294.294,0,0,1-.288-.013.2.2,0,0,1-.091-.2l.681-4.187a.518.518,0,0,0-.137-.445L67.881,92.9a.188.188,0,0,1-.049-.192.241.241,0,0,1,.2-.153l4-.614a.485.485,0,0,0,.363-.277l1.74-3.728a.262.262,0,0,1,.455,0l1.74,3.727a.485.485,0,0,0,.363.277l4,.612a.245.245,0,0,1,.2.15A.193.193,0,0,1,80.839,92.9Z" transform="translate(-66.859 -86.793)"/>
</svg>
