<svg xmlns="http://www.w3.org/2000/svg" xmlns:xlink="http://www.w3.org/1999/xlink" viewBox="0 0 26 26">
  <defs>
    <style>
      .cls-1 {
        fill: url(#linear-gradient);
      }
    </style>
    <linearGradient id="linear-gradient" y1="0.5" x2="1" y2="0.5" gradientUnits="objectBoundingBox">
      <stop offset="0" stop-color="#1fbbec"/>
      <stop offset="1" stop-color="#2987d9"/>
    </linearGradient>
  </defs>
  <path id="Subtraction_4" data-name="Subtraction 4" class="cls-1" d="M-432,23a12.915,12.915,0,0,1-9.193-3.807A12.915,12.915,0,0,1-445,10,12.915,12.915,0,0,1-441.192.808,12.915,12.915,0,0,1-432-3,12.915,12.915,0,0,1-422.807.808,12.915,12.915,0,0,1-419,10a12.915,12.915,0,0,1-3.807,9.193A12.915,12.915,0,0,1-432,23Zm-.511-7.79-1.576,3.632,3.507-1.788-1.932-1.844h0Zm6.55-2.1-3.793,3.776a.947.947,0,0,1-.155.114l-.062.04.035.03L-433,18.69h6.209a.835.835,0,0,0,.834-.834ZM-438.478,2.417a.836.836,0,0,0-.835.835v14.6a.836.836,0,0,0,.835.835h4.127L-432.7,14.7l.038.034a1.225,1.225,0,0,1,.284-.455l6.417-6.387V3.251a.835.835,0,0,0-.834-.835Zm14.891,4a.9.9,0,0,0-.629.277l-7.377,7.377a.9.9,0,0,0-.277.628.629.629,0,0,0,.178.451l.979.981a.63.63,0,0,0,.449.176.911.911,0,0,0,.633-.278l7.376-7.375a.924.924,0,0,0,.274-.561.636.636,0,0,0-.174-.52l-.981-.979A.629.629,0,0,0-423.587,6.417Zm-8.215,3.925h-5.424c-.46,0-.835-.25-.835-.557s.374-.556.835-.556h5.424c.46,0,.835.249.835.556S-431.341,10.342-431.8,10.342Zm3.339-2.846h-8.763c-.46,0-.835-.242-.835-.539s.374-.539.835-.539h8.763c.46,0,.835.242.835.539S-428,7.5-428.463,7.5Zm0-2.8h-8.763c-.46,0-.835-.23-.835-.513s.374-.515.835-.515h8.763c.46,0,.835.231.835.515S-428,4.7-428.463,4.7Z" transform="translate(445 3)"/>
</svg>
