<svg xmlns="http://www.w3.org/2000/svg" xmlns:xlink="http://www.w3.org/1999/xlink" viewBox="0 0 50.001 50.001">
  <defs>
    <style>
      .cls-1 {
        fill: url(#linear-gradient);
      }

      .cls-2 {
        fill: #fff;
      }
    </style>
    <linearGradient id="linear-gradient" y1="0.5" x2="1" y2="0.5" gradientUnits="objectBoundingBox">
      <stop offset="0" stop-color="#f5e021"/>
      <stop offset="1" stop-color="#febf12"/>
    </linearGradient>
  </defs>
  <g id="Symbol_1_1" data-name="Symbol 1 – 1" transform="translate(-41 -81.653)">
    <path id="Exclusion_6" data-name="Exclusion 6" class="cls-1" d="M25,0A25,25,0,1,1,0,25,25,25,0,0,1,25,0Z" transform="translate(41 81.654)"/>
    <path id="客服_1_" data-name="客服 (1)" class="cls-2" d="M106.767,35.027c-.179,0-.417-.06-.6-.06V31.455a8.931,8.931,0,1,0-17.861,0v3.513c-.179,0-.417.06-.6.06a2.389,2.389,0,0,1-2.382-2.382,2.364,2.364,0,0,1,1.846-2.322,10.126,10.126,0,0,1,20.124,0,2.364,2.364,0,0,1,1.846,2.322,2.389,2.389,0,0,1-2.382,2.382Zm-9.526,4.168a7.74,7.74,0,1,1,7.74-7.74A7.725,7.725,0,0,1,97.241,39.195ZM90.93,37.766a8.912,8.912,0,0,0,12.562.06,11.147,11.147,0,0,1,3.93,5.477,8.594,8.594,0,0,1,.536,3.81,1.8,1.8,0,0,1-1.786,1.608H88.31a1.8,1.8,0,0,1-1.786-1.608v-.774A10.516,10.516,0,0,1,90.93,37.766Z" transform="translate(-31.482 71.233)"/>
  </g>
</svg>
