<svg xmlns="http://www.w3.org/2000/svg" xmlns:xlink="http://www.w3.org/1999/xlink" viewBox="0 0 50.001 50.001">
  <defs>
    <style>
      .cls-1 {
        fill: url(#linear-gradient);
      }

      .cls-2 {
        fill: #fff;
      }
    </style>
    <linearGradient id="linear-gradient" y1="0.5" x2="1" y2="0.5" gradientUnits="objectBoundingBox">
      <stop offset="0" stop-color="#33bffc"/>
      <stop offset="1" stop-color="#35a4fd"/>
    </linearGradient>
  </defs>
  <g id="Symbol_2_1" data-name="Symbol 2 – 1" transform="translate(-162 -81.653)">
    <path id="Exclusion_7" data-name="Exclusion 7" class="cls-1" d="M25,0A25,25,0,1,1,0,25,25,25,0,0,1,25,0Z" transform="translate(162 81.654)"/>
    <path id="QQ" class="cls-2" d="M52.311,15.964c-.977,2.434-1.139,4.756-.352,5.187.545.3,1.392-.385,2.191-1.631A6.889,6.889,0,0,0,56.363,23.1c-1.169.456-1.934,1.2-1.934,2.041,0,1.386,2.068,2.5,4.618,2.5,2.3,0,4.207-.909,4.559-2.106h.547c.359,1.2,2.261,2.106,4.564,2.106,2.553,0,4.618-1.119,4.618-2.5,0-.841-.764-1.58-1.936-2.041a6.9,6.9,0,0,0,2.212-3.578c.8,1.246,1.642,1.93,2.189,1.631.791-.431.633-2.753-.353-5.187-.771-1.906-1.816-3.314-2.613-3.629.011-.116.02-.244.02-.367a3.823,3.823,0,0,0-.532-1.976.871.871,0,0,0,.007-.131,2.14,2.14,0,0,0-.209-.932c-.2-4.962-3.27-8.907-8.24-8.907S55.839,3.968,55.638,8.93a2.217,2.217,0,0,0-.209.936,1.064,1.064,0,0,0,.005.131,3.86,3.86,0,0,0-.526,1.975c0,.124.007.248.015.369-.794.313-1.843,1.717-2.612,3.623Z" transform="translate(123.54 92.311)"/>
  </g>
</svg>
