<svg xmlns="http://www.w3.org/2000/svg" xmlns:xlink="http://www.w3.org/1999/xlink" viewBox="0 0 36 36">
  <defs>
    <style>
      .cls-1 {
        fill: url(#linear-gradient);
      }
    </style>
    <linearGradient id="linear-gradient" y1="0.5" x2="1" y2="0.5" gradientUnits="objectBoundingBox">
      <stop offset="0" stop-color="#ff5a3e"/>
      <stop offset="1" stop-color="#fb2351"/>
    </linearGradient>
  </defs>
  <path id="礼物" class="cls-1" d="M18,36A18,18,0,1,1,36,18,18,18,0,0,1,18,36Zm-.945-25.72a.783.783,0,0,0,.465-.118.426.426,0,0,0,.186-.3.6.6,0,0,0-.093-.378,1.188,1.188,0,0,0-.35-.366Q17,8.955,16.718,8.8q-.36-.2-.778-.449t-.861-.5q-.4-.223-.79-.461a.611.611,0,0,0-.512-.118.623.623,0,0,0-.337.283,1.762,1.762,0,0,0-.2.52,4.309,4.309,0,0,0-.093.567A3.148,3.148,0,0,0,13.1,9.2a1.85,1.85,0,0,0,.07.531.81.81,0,0,0,.244.39.732.732,0,0,0,.5.154h3.139Zm1.814-.024h3.116a.733.733,0,0,0,.5-.154.813.813,0,0,0,.244-.39,1.874,1.874,0,0,0,.07-.531q0-.3-.023-.555-.05-.278-.1-.555a1.564,1.564,0,0,0-.186-.508.623.623,0,0,0-.337-.283.646.646,0,0,0-.512.094c-.232.142-.5.3-.79.461s-.586.33-.872.5-.55.315-.79.449a5.45,5.45,0,0,0-.523.319,1.117,1.117,0,0,0-.373.366.6.6,0,0,0-.093.378.427.427,0,0,0,.186.3.825.825,0,0,0,.488.118ZM16.73,11.815H9.986a1.322,1.322,0,0,0-.965.248,1.17,1.17,0,0,0-.221.791v2.078a1.318,1.318,0,0,0,.244.874,1.258,1.258,0,0,0,.966.283h6.72V11.816Zm2.534,0V16.09h6.72a1.291,1.291,0,0,0,.966-.272,1.226,1.226,0,0,0,.244-.838V12.948a1.2,1.2,0,0,0-.267-.838,1.344,1.344,0,0,0-1.011-.3H19.264ZM16.73,17.343H9.59v8.929a2.5,2.5,0,0,0,.674,1.866,2.89,2.89,0,0,0,2.093.662H16.73V17.342Zm2.534,0V28.8h4.372a2.714,2.714,0,0,0,2.07-.7,2.757,2.757,0,0,0,.674-1.9V17.342H19.264Z"/>
</svg>
