<svg xmlns="http://www.w3.org/2000/svg" xmlns:xlink="http://www.w3.org/1999/xlink" viewBox="0 0 27 27">
  <defs>
    <style>
      .cls-1 {
        fill: url(#linear-gradient);
      }
    </style>
    <linearGradient id="linear-gradient" y1="0.5" x2="1" y2="0.5" gradientUnits="objectBoundingBox">
      <stop offset="0" stop-color="#fdb713"/>
      <stop offset="1" stop-color="#fe8812"/>
    </linearGradient>
  </defs>
  <path id="Subtraction_1" data-name="Subtraction 1" class="cls-1" d="M-431.5,24a13.412,13.412,0,0,1-9.546-3.954A13.412,13.412,0,0,1-445,10.5,13.412,13.412,0,0,1-441.046.954,13.412,13.412,0,0,1-431.5-3,13.412,13.412,0,0,1-421.954.954,13.411,13.411,0,0,1-418,10.5a13.411,13.411,0,0,1-3.954,9.546A13.412,13.412,0,0,1-431.5,24Zm-9-15.751h0v9.08a1.046,1.046,0,0,0,1.045,1.044h15.91A1.045,1.045,0,0,0-422.5,17.33V8.249h-18Zm1.124-4.5A1.127,1.127,0,0,0-440.5,4.875V7.127h18V4.875a1.112,1.112,0,0,0-.327-.794,1.116,1.116,0,0,0-.8-.331ZM-434.029,15h-4.5a.563.563,0,0,1-.562-.563.563.563,0,0,1,.562-.563h4.5a.564.564,0,0,1,.563.563A.564.564,0,0,1-434.029,15Zm5.391-2.251h-1.126a.563.563,0,0,1-.562-.563.563.563,0,0,1,.562-.563h1.126a.564.564,0,0,1,.563.563A.564.564,0,0,1-428.638,12.749Zm-4.265,0h-5.626a.563.563,0,0,1-.562-.563.563.563,0,0,1,.562-.563h5.626a.564.564,0,0,1,.563.563A.564.564,0,0,1-432.9,12.749Z" transform="translate(445 3)"/>
</svg>
