<svg xmlns="http://www.w3.org/2000/svg" xmlns:xlink="http://www.w3.org/1999/xlink" viewBox="0 0 36 36">
  <defs>
    <style>
      .cls-1 {
        fill: url(#linear-gradient);
      }
    </style>
    <linearGradient id="linear-gradient" y1="0.5" x2="1" y2="0.5" gradientUnits="objectBoundingBox">
      <stop offset="0" stop-color="#33bffc"/>
      <stop offset="1" stop-color="#35a5fd"/>
    </linearGradient>
  </defs>
  <path id="常见问题" class="cls-1" d="M124.538,106.263a18,18,0,1,0-12.081,17l10.366,1-3.378-5.461a17.935,17.935,0,0,0,5.092-12.539ZM109.195,118.6H104.7v-4.139h4.494V118.6Zm1.774-11q-2.367,1.538-2.247,3.548v.828h-3.548v-.946q-.119-3.548,3.311-6.031,3.309-2.245,2.956-4.731-.354-2.838-3.548-3.075-4.258-.117-4.967,4.257l-3.784-1.064q1.536-6.977,9.106-6.623,6.622.355,7.214,6.623a6.96,6.96,0,0,1-1.349,4.183,12.651,12.651,0,0,1-3.144,3.031Zm0,0" transform="translate(-88.538 -88.262)"/>
</svg>
