<svg xmlns="http://www.w3.org/2000/svg" xmlns:xlink="http://www.w3.org/1999/xlink" viewBox="0 0 26 26">
  <defs>
    <style>
      .cls-1 {
        fill: url(#linear-gradient);
      }
    </style>
    <linearGradient id="linear-gradient" y1="0.5" x2="1" y2="0.5" gradientUnits="objectBoundingBox">
      <stop offset="0" stop-color="#ff4b3e"/>
      <stop offset="1" stop-color="#fb2351"/>
    </linearGradient>
  </defs>
  <path id="Exclusion_1" data-name="Exclusion 1" class="cls-1" d="M-432,23a12.915,12.915,0,0,1-9.193-3.807A12.915,12.915,0,0,1-445,10,12.915,12.915,0,0,1-441.192.808,12.915,12.915,0,0,1-432-3,12.915,12.915,0,0,1-422.807.808,12.915,12.915,0,0,1-419,10a12.915,12.915,0,0,1-3.807,9.193A12.915,12.915,0,0,1-432,23Zm0-21.667a8.448,8.448,0,0,0-3.378.685,8.825,8.825,0,0,0-2.751,1.853,8.825,8.825,0,0,0-1.853,2.751A8.448,8.448,0,0,0-440.667,10a8.439,8.439,0,0,0,.685,3.377,8.819,8.819,0,0,0,1.853,2.752,8.825,8.825,0,0,0,2.751,1.853,8.448,8.448,0,0,0,3.378.685,8.439,8.439,0,0,0,3.377-.685,8.8,8.8,0,0,0,2.751-1.853,8.825,8.825,0,0,0,1.854-2.752A8.439,8.439,0,0,0-423.333,10a8.448,8.448,0,0,0-.685-3.378,8.83,8.83,0,0,0-1.854-2.751,8.8,8.8,0,0,0-2.751-1.853A8.439,8.439,0,0,0-432,1.333Zm-4.807,13.551h0a.38.38,0,0,1-.24-.116.758.758,0,0,1-.136-.213.577.577,0,0,1-.048-.222.52.52,0,0,1,.019-.164.055.055,0,0,1,.019-.038,2.5,2.5,0,0,1,.676-.965,4.886,4.886,0,0,1,1.178-.782,6.819,6.819,0,0,1,1.564-.522,8.912,8.912,0,0,1,1.833-.183,8.057,8.057,0,0,1,3.32.628,3.647,3.647,0,0,1,1.892,1.669.156.156,0,0,0,.02.059c.013.025.032.069.059.135a.751.751,0,0,1-.01.357.47.47,0,0,1-.376.358,5.337,5.337,0,0,0-1.2-.946,7.633,7.633,0,0,0-1.543-.666,7.219,7.219,0,0,0-2.2-.3,6.867,6.867,0,0,0-2.153.3,7.29,7.29,0,0,0-1.5.666,5.5,5.5,0,0,0-1.178.946Zm7.568-6.37a1.229,1.229,0,0,1-.965-.483,1.751,1.751,0,0,1-.406-1.158,1.891,1.891,0,0,1,.106-.628,1.623,1.623,0,0,1,.3-.521,1.467,1.467,0,0,1,.434-.347,1.137,1.137,0,0,1,.531-.126,1.135,1.135,0,0,1,.53.126,1.469,1.469,0,0,1,.435.347,1.621,1.621,0,0,1,.3.521,1.89,1.89,0,0,1,.105.628,1.75,1.75,0,0,1-.4,1.158A1.229,1.229,0,0,1-429.239,8.514Zm-5.463,0a1.2,1.2,0,0,1-.956-.483,1.779,1.779,0,0,1-.4-1.158,1.739,1.739,0,0,1,.4-1.149,1.213,1.213,0,0,1,.956-.473,1.184,1.184,0,0,1,.946.473,1.764,1.764,0,0,1,.386,1.149,1.8,1.8,0,0,1-.386,1.158A1.176,1.176,0,0,1-434.7,8.514Z" transform="translate(445 3)"/>
</svg>
