<svg id="客服" xmlns="http://www.w3.org/2000/svg" viewBox="0 0 23 23">
  <defs>
    <style>
      .cls-1 {
        fill: #fff;
      }
    </style>
  </defs>
  <path id="Path_734" data-name="Path 734" class="cls-1" d="M3.136,326.847v5.227H1.044v-5.227H3.136m0-1.047H1.044A1.049,1.049,0,0,0,0,326.847v5.227a1.047,1.047,0,0,0,1.044,1.044H3.136a1.047,1.047,0,0,0,1.044-1.044v-5.227A1.047,1.047,0,0,0,3.136,325.8Zm18.82,1.047v5.227H19.864v-5.227h2.091m0-1.047H19.864a1.047,1.047,0,0,0-1.044,1.044v5.227a1.047,1.047,0,0,0,1.044,1.044h2.091A1.047,1.047,0,0,0,23,332.071v-5.224A1.049,1.049,0,0,0,21.956,325.8ZM11.5,336.256a2.091,2.091,0,1,1-2.091,2.091,2.095,2.095,0,0,1,2.091-2.091m0-1.047a3.137,3.137,0,1,0,3.136,3.138,3.136,3.136,0,0,0-3.136-3.138ZM9.409,325.8H7.318v2.091H9.409Zm6.273,0H13.591v2.091h2.091Zm-.582,5.227a4.145,4.145,0,0,1-7.2,0H6.714a5.221,5.221,0,0,0,9.573,0Z" transform="translate(0 -318.482)"/>
  <path id="Path_735" data-name="Path 735" class="cls-1" d="M69.014,7.318a9.394,9.394,0,0,1,17.722,0H87.85a10.457,10.457,0,0,0-19.95,0Zm17.277,7.318a9.447,9.447,0,0,1-5.281,4.679v1.114a10.48,10.48,0,0,0,6.442-5.793Z" transform="translate(-66.375 0)"/>
</svg>
