<?xml version="1.0" encoding="utf-8"?>
<!-- Generator: Adobe Illustrator 22.1.0, SVG Export Plug-In . SVG Version: 6.00 Build 0)  -->
<svg version="1.1" id="Layer_1" xmlns="http://www.w3.org/2000/svg" xmlns:xlink="http://www.w3.org/1999/xlink" x="0px" y="0px"
	 viewBox="0 0 40 40" style="enable-background:new 0 0 40 40;" xml:space="preserve">
<style type="text/css">
	.st0{fill:url(#Ellipse_10_1_);}
	.st1{fill:#FFFFFF;}
</style>
<g id="Symbol_7_1" transform="translate(-221.592 -292)">
	
		<linearGradient id="Ellipse_10_1_" gradientUnits="userSpaceOnUse" x1="137.0066" y1="410.525" x2="138.0066" y2="410.525" gradientTransform="matrix(40 0 0 -40 -5258.6484 16733)">
		<stop  offset="0" style="stop-color:#A783E6"/>
		<stop  offset="1" style="stop-color:#964CC8"/>
	</linearGradient>
	<circle id="Ellipse_10" class="st0" cx="241.6" cy="312" r="20"/>
	<g id="裕农通-现金服务" transform="translate(810.92 159.104)">
		<path id="Path_775" class="st1" d="M-603.7,165.3"/>
		<path id="Path_776" class="st1" d="M-575.5,150.6c0.1-0.3,0.2-0.6,0.4-0.8c0.2-0.3,0.4-0.6,0.7-0.9c1.2-1.3,3.2-1.6,4.8-0.6
			c0.1,0.1,0.3,0.2,0.4,0.3c0.1,0.1,0.1,0.2,0.2,0.2c1.2,1.8,0.7,4.2-1,5.3c-1.4,1-3.3,0.9-4.6-0.2
			C-575.6,153.1-575.9,151.8-575.5,150.6L-575.5,150.6z M-575.2,155.8c0,0.7-0.6,1.3-1.3,1.3c-0.2,0-0.4,0-0.6-0.1
			c-0.1-0.1-0.3-0.1-0.4-0.2c-0.1-0.1-0.2-0.2-0.3-0.4l0,0c0,0,0,0,0,0c0-0.1,0-0.1-0.1-0.2c0,0,0,0,0,0c0-0.1,0-0.1,0-0.2
			c0,0,0,0,0,0c0-0.1,0-0.1,0-0.2c0,0,0,0,0,0c0-0.1,0-0.1,0-0.1c0,0,0,0,0,0c0-0.1,0-0.1,0-0.2c0,0,0,0,0,0c0,0,0-0.1,0.1-0.1
			c0,0,0,0,0,0c0,0,0.1-0.1,0.1-0.1c0,0,0,0,0,0l0,0c0,0,0.1-0.1,0.1-0.1c0.5-0.5,1.3-0.5,1.9,0c0,0,0.1,0.1,0.1,0.1c0,0,0,0,0,0
			s0,0,0.1,0.1s0,0,0,0c0,0,0,0,0,0.1s0,0,0,0s0,0,0,0.1c0,0,0,0,0,0c0,0,0,0,0,0.1c0,0,0,0,0,0.1c0,0,0,0,0,0.1c0,0,0,0,0,0.1
			s0,0,0,0.1S-575.2,155.7-575.2,155.8C-575.2,155.8-575.2,155.8-575.2,155.8C-575.2,155.8-575.2,155.8-575.2,155.8L-575.2,155.8
			L-575.2,155.8z M-568.8,146.7c0-0.1,0-0.1,0-0.2c0,0,0,0,0,0c0-0.1,0-0.1,0.1-0.2c0,0,0,0,0,0c0-0.1,0.1-0.1,0.1-0.2c0,0,0,0,0,0
			c0-0.1,0.1-0.1,0.1-0.2c0,0,0.1-0.1,0.1-0.1c0,0,0,0,0,0c0,0,0.1-0.1,0.1-0.1c0,0,0,0,0,0c0,0,0.1,0,0.2-0.1l0,0c0,0,0.1,0,0.1,0
			l0,0c0.1,0,0.1,0,0.2,0h0c0,0,0.1,0,0.1,0h0c0.1,0,0.1,0,0.2,0l0,0c0,0,0.1,0,0.1,0l0,0l0,0c0.2,0.1,0.3,0.2,0.5,0.3
			c0,0,0.1,0.1,0.1,0.2l0,0l0,0c0,0.1,0.1,0.1,0.1,0.2c0,0,0,0,0,0c0,0.1,0.1,0.1,0.1,0.2l0,0c0,0.1,0.1,0.3,0,0.4c0,0,0,0,0,0
			c0,0.1,0,0.1,0,0.2l0,0c0,0.1,0,0.1-0.1,0.2c0,0,0,0,0,0c0,0,0,0.1,0,0.1c0,0,0,0.1-0.1,0.1c0,0,0,0,0,0c0,0.1-0.1,0.1-0.1,0.2
			l0,0c0,0-0.1,0-0.1,0.1l0,0c0,0,0,0-0.1,0.1l0,0c0,0,0,0-0.1,0l0,0l-0.1,0c0,0,0,0-0.1,0l-0.1,0l-0.1,0c0,0,0,0-0.1,0
			c0,0,0,0-0.1,0c0,0,0,0-0.1,0l-0.1,0h-0.1c0,0,0,0-0.1,0h0c0,0,0,0-0.1,0c0,0,0,0,0,0l-0.1,0c0,0,0,0,0,0c0,0-0.1,0-0.1,0l0,0
			c0,0-0.1,0-0.1,0l0,0c0,0-0.1,0-0.1,0l0,0c0,0,0,0-0.1,0l0,0l0,0c0,0-0.1,0-0.1-0.1c0,0,0,0,0,0c0,0-0.1-0.1-0.1-0.1
			c0,0-0.1-0.1-0.1-0.1l0,0c0,0,0,0,0,0c0-0.1-0.1-0.1-0.1-0.2c0,0,0,0,0,0c0-0.1-0.1-0.1-0.1-0.2c0,0,0,0,0,0c0-0.1,0-0.1,0-0.2
			c0,0,0,0,0,0C-568.8,146.9-568.8,146.8-568.8,146.7C-568.8,146.7-568.8,146.7-568.8,146.7L-568.8,146.7z M-574.1,160.4
			C-574.1,160.4-574,160.5-574.1,160.4c0.1,0.1,0.2,0.1,0.2,0l11-11c0,0,0-0.1,0-0.1c0,0,0-0.1-0.1-0.1c-0.1,0-0.2-0.1-0.2-0.2
			c-0.4-0.4-0.3-1.1,0.1-1.5c0.1-0.1,0.1-0.1,0.2-0.2c0,0,0.1-0.1,0.1-0.1c0,0,0-0.1,0-0.1l-0.1-0.1l-0.6-0.6l-4.3-4.3
			c0,0-0.1,0-0.1,0c0,0-0.1,0-0.1,0.1c-0.1,0.1-0.1,0.2-0.2,0.2c-0.4,0.4-1.1,0.5-1.5,0.1c-0.1-0.1-0.1-0.1-0.1-0.2
			c0-0.1-0.1-0.1-0.2,0c0,0,0,0,0,0l-8,8l-1.2,1.2l-1.7,1.7c0,0,0,0.1,0,0.1c0,0,0,0.1,0.1,0.1c0.1,0,0.1,0.1,0.2,0.1
			c0.4,0.4,0.3,1.1-0.1,1.5c-0.1,0.1-0.1,0.1-0.2,0.2c0,0,0,0.1,0,0.1c0,0,0,0.1,0,0.1l3.6,3.6l1.2,1.2l0.1,0.1c0,0,0.1,0,0.2,0
			c0,0,0,0,0,0c0.3-0.5,1-0.7,1.5-0.4c0.1,0,0.1,0.1,0.2,0.1C-574.2,160.2-574.1,160.3-574.1,160.4L-574.1,160.4z M-557.2,157.4
			L-557.2,157.4l-16,4.3l1-1l13.4-3.6c0,0,0.1,0,0.1-0.1c0,0,0-0.1,0-0.1c-0.1-0.1-0.1-0.2-0.1-0.3c-0.1-0.6,0.3-1.1,0.8-1.3
			c0.1,0,0.2,0,0.3,0c0,0,0.1,0,0.1,0c0,0,0-0.1,0-0.1l-1.8-6.7c0,0,0-0.1-0.1-0.1c0,0-0.1,0-0.1,0c-0.1,0-0.2,0.1-0.3,0.1
			c-0.2,0.1-0.4,0.1-0.6,0c0.1-0.5-0.1-1-0.4-1.3l-0.4-0.4l0.9-0.2l0.2-0.1c0.5-0.1,1,0.2,1.1,0.7l2.4,9.1
			C-556.4,156.7-556.7,157.2-557.2,157.4L-557.2,157.4z M-563.8,153.1c0.4,2-0.8,3.9-2.8,4.3c-0.8,0.2-1.6,0.2-2.3,0l1.4-1.4
			c0.1,0,0.2,0,0.3,0l0.1,0.5l0.6-0.2l-0.2-0.6c0.6-0.2,0.9-0.8,0.7-1.3l1.9-1.9C-563.9,152.7-563.8,152.9-563.8,153.1L-563.8,153.1
			z M-560,152.1c0,0.1,0,0.1,0,0.2l0,0v0c0,0.1,0,0.1,0,0.2c0,0,0,0,0,0c0,0.1,0,0.1,0,0.2l0,0c0,0.1-0.1,0.3-0.2,0.4l0,0
			c0,0.1-0.1,0.1-0.1,0.2l0,0c0,0-0.1,0.1-0.2,0.1c0,0,0,0,0,0c-0.1,0-0.1,0.1-0.2,0.1c0,0,0,0,0,0c-0.1,0-0.1,0.1-0.2,0.1l0,0
			c0,0-0.1,0-0.1,0l0,0l-0.1,0h0h-0.1c0,0,0,0-0.1,0s-0.1,0-0.1,0l-0.1,0l-0.1,0l-0.1,0c0,0,0,0-0.1,0c0,0,0,0-0.1,0c0,0,0,0-0.1,0
			c0,0,0,0-0.1,0c0,0,0,0-0.1,0c0,0,0,0,0,0l0,0c0,0,0,0,0,0c0,0,0,0,0,0c0,0,0,0-0.1-0.1s0,0,0,0s0,0-0.1-0.1l0,0c0,0,0,0-0.1-0.1
			c0,0,0,0,0,0c0,0,0,0,0-0.1l0,0c0,0,0-0.1,0-0.1c0,0,0,0,0,0c0,0,0-0.1,0-0.1c0,0,0,0,0,0c0,0,0-0.1,0-0.1c0,0,0-0.1,0-0.1
			c0,0,0,0,0,0v0c0-0.1,0-0.1,0-0.2c0,0,0,0,0,0c0-0.1,0-0.1,0-0.2c0,0,0,0,0,0c0-0.1,0-0.1,0.1-0.2c0,0,0,0,0,0
			c0-0.1,0.1-0.1,0.1-0.2l0,0c0-0.1,0.1-0.1,0.1-0.2c0,0,0,0,0,0c0,0,0.1-0.1,0.2-0.1l0,0c0.1,0,0.1-0.1,0.2-0.1l0,0
			c0.1,0,0.1-0.1,0.2-0.1c0.1,0,0.1,0,0.2,0c0,0,0,0,0,0c0.1,0,0.1,0,0.2,0h0c0.1,0,0.1,0,0.2,0l0,0c0,0,0.1,0,0.1,0l0,0
			c0.1,0,0.1,0,0.2,0.1c0,0,0,0,0,0c0,0,0.1,0,0.1,0.1l0,0c0,0,0.1,0.1,0.1,0.1c0,0,0,0,0,0c0,0,0.1,0.1,0.1,0.1c0,0,0,0,0,0l0,0
			C-560.2,151.7-560.1,151.9-560,152.1L-560,152.1z M-575.7,161.9l-1.4-1.4l-5.3-5.3c-0.4-0.4-0.4-1,0-1.3l0.1-0.1l12.7-12.7
			l0.2-0.2c0.4-0.4,1-0.4,1.3,0l5.4,5.4l0.6,0.6l0.7,0.7c0.4,0.4,0.4,1,0,1.3l0,0l-12.9,12.9c0,0-0.1,0.1-0.1,0.1l0,0
			c0,0-0.1,0-0.1,0C-574.9,162.2-575.4,162.2-575.7,161.9L-575.7,161.9z M-558.2,146.8c-0.2-0.8-1-1.3-1.8-1l-1.8,0.5l-5.9-5.9
			c-0.6-0.6-1.5-0.6-2.1,0l-13.3,13.3c-0.6,0.6-0.6,1.5,0,2.1l6.5,6.5c0.3,0.3,0.6,0.6,1,0.7c0.1,0,0.2,0,0.2,0c0.1,0,0.2,0,0.2,0
			c0.1,0,0.2,0,0.2,0c0,0,0.1,0,0.1,0s0.1,0,0.1,0c0.1,0,0.1-0.1,0.2-0.1c0.1,0,0.1-0.1,0.2-0.1l17.4-4.7c0.8-0.2,1.3-1,1-1.8
			L-558.2,146.8L-558.2,146.8z M-573,149.1l0.4,1.1l0.1,0.4l-0.3-0.1l-1.2-0.4l-0.9,0.9l0.1,0l2.6,0.8l0.1,0.1l-0.7,0.7l0.1,0.1
			l0.4,0.4l0.7-0.7l0.9,0.9l0.8-0.8l-0.9-0.9l0.7-0.7l-0.4-0.4l-0.1-0.1l-0.7,0.7l-0.1-0.1l-0.5-1.6l-0.3-1l0-0.1L-573,149.1
			L-573,149.1z"/>
	</g>
</g>
</svg>
