<svg xmlns="http://www.w3.org/2000/svg" xmlns:xlink="http://www.w3.org/1999/xlink" viewBox="0 0 36 36">
  <defs>
    <style>
      .cls-1 {
        fill: url(#linear-gradient);
      }

      .cls-2 {
        fill: #fff;
      }
    </style>
    <linearGradient id="linear-gradient" y1="0.5" x2="1" y2="0.5" gradientUnits="objectBoundingBox">
      <stop offset="0" stop-color="#ff5a3e"/>
      <stop offset="1" stop-color="#fb2351"/>
    </linearGradient>
  </defs>
  <g id="Symbol_5_1" data-name="Symbol 5 – 1" transform="translate(-235 -382)">
    <circle id="Ellipse_8" data-name="Ellipse 8" class="cls-1" cx="18" cy="18" r="18" transform="translate(235 382)"/>
    <path id="文本_1_" data-name="文本 (1)" class="cls-2" d="M142.652,60.416a2.821,2.821,0,0,1,2.236.865,3.081,3.081,0,0,1,.761,2.109V75.631a1.4,1.4,0,0,1-.484,1.037l-3.85,3.689a1.681,1.681,0,0,1-.507.323,1.707,1.707,0,0,1-.53.069H129.927a2.759,2.759,0,0,1-1.06-.219,2.973,2.973,0,0,1-.945-.622,3.276,3.276,0,0,1-.68-.968,2.92,2.92,0,0,1-.265-1.256V63.39a3.058,3.058,0,0,1,.749-2.167,2.766,2.766,0,0,1,2.132-.807Zm-4.841,14.455a.708.708,0,0,0,.715-.715.68.68,0,0,0-.207-.519.711.711,0,0,0-.507-.2H130.6a.711.711,0,0,0-.507.2.68.68,0,0,0-.207.519.708.708,0,0,0,.715.715Zm2.882-4.334a.715.715,0,1,0,0-1.429H130.6a.715.715,0,1,0,0,1.429h10.1Zm1.429-4.311a.69.69,0,0,0,.507-.207.718.718,0,0,0,.207-.53.708.708,0,0,0-.715-.715H130.6a.708.708,0,0,0-.715.715.718.718,0,0,0,.207.53.69.69,0,0,0,.507.207Z" transform="translate(117.024 329.584)"/>
  </g>
</svg>
