<svg xmlns="http://www.w3.org/2000/svg" width="23" height="20" viewBox="0 0 23 20">
  <path id="购彩" d="M90.857,129.5H77.714V128a.507.507,0,0,0-.513-.5h-.616a.507.507,0,0,0-.513.5v1.5H71.143a1.622,1.622,0,0,1-1.643-1.6v-2.1a.936.936,0,0,1,.708-.9,5.564,5.564,0,0,0,0-10.8.937.937,0,0,1-.708-.9v-2.1a1.622,1.622,0,0,1,1.643-1.6h4.929V111a.507.507,0,0,0,.513.5H77.2a.507.507,0,0,0,.513-.5v-1.5H90.857a1.622,1.622,0,0,1,1.643,1.6v16.8A1.621,1.621,0,0,1,90.857,129.5ZM77.714,113.6a.507.507,0,0,0-.513-.5h-.616a.507.507,0,0,0-.513.5v2.2a.507.507,0,0,0,.513.5H77.2a.507.507,0,0,0,.513-.5Zm0,4.8a.507.507,0,0,0-.513-.5h-.616a.507.507,0,0,0-.513.5v2.2a.507.507,0,0,0,.513.5H77.2a.507.507,0,0,0,.513-.5Zm0,4.8a.507.507,0,0,0-.513-.5h-.616a.507.507,0,0,0-.513.5v2.2a.507.507,0,0,0,.513.5H77.2a.507.507,0,0,0,.513-.5Zm9.1-8.419-1.41,3.186q-.175.4-.257.617h-.025l-1.7-3.8H81.334l2.331,4.242H81.9v1.208h2.156v1.044H81.9v1.209h2.156v1.752h1.974v-1.752h2.087v-1.209H86.028v-1.044h2.087v-1.208H86.385l2.4-4.242Z" transform="translate(-69.5 -109.5)" fill="#c6cfd6"/>
</svg>
