<svg xmlns="http://www.w3.org/2000/svg" xmlns:xlink="http://www.w3.org/1999/xlink" width="28.127" height="23" viewBox="0 0 28.127 23">
  <defs>
    <linearGradient id="linear-gradient" y1="0.579" x2="1" y2="0.594" gradientUnits="objectBoundingBox">
      <stop offset="0" stop-color="#f6673d"/>
      <stop offset="1" stop-color="#fb3b59"/>
    </linearGradient>
  </defs>
  <path id="棋牌" d="M27.424,3.8,17.93.775a1.508,1.508,0,0,0-1.9.975l-1.8,5.612-1.092-5.78A1.512,1.512,0,0,0,11.377.388L1.58,2.253A1.512,1.512,0,0,0,.387,4.018l3.277,17.14A1.512,1.512,0,0,0,5.428,22.35l8.032-1.529,7.763,2.47a1.515,1.515,0,0,0,1.9-.975L28.432,5.7a1.563,1.563,0,0,0-1.008-1.9ZM3.059,5.749c-.706-.437-1.428-.857-1.529-1.411a.606.606,0,0,1,.5-.672.654.654,0,0,1,.689.3c.1-.3.218-.47.538-.521a.581.581,0,0,1,.706.437c.1.538-.4,1.193-.907,1.865Zm5.881,8.5c-1.882-1.143-3.747-2.285-4.033-3.714A1.556,1.556,0,0,1,6.235,8.79a1.714,1.714,0,0,1,1.815.773c.269-.807.588-1.243,1.395-1.395a1.554,1.554,0,0,1,1.882,1.143c.269,1.445-1.059,3.193-2.386,4.94ZM18,2l.538,1.7L17.107,4.774l-.538-1.7L18,2Zm.4,13.661L16.871,10.79,20.938,7.7l1.529,4.873Z" transform="translate(-0.362 -0.363)" fill="url(#linear-gradient)"/>
</svg>
