<svg id="服务2" xmlns="http://www.w3.org/2000/svg" width="23.003" height="23" viewBox="0 0 23.003 23">
  <g id="Group_303" data-name="Group 303" transform="translate(0 2.472)">
    <path id="Path_802" data-name="Path 802" d="M5.805,35.1A.8.8,0,0,1,5,34.3V27.305a.8.8,0,0,1,.805-.805H12.8a.8.8,0,0,1,.805.805V34.3a.8.8,0,0,1-.805.805Z" transform="translate(-4.425 -25.925)" fill="#c6cfd6"/>
    <path id="Path_803" data-name="Path 803" d="M8.372,22.65a.231.231,0,0,1,.23.23v6.992a.231.231,0,0,1-.23.23H1.38a.231.231,0,0,1-.23-.23V22.88a.231.231,0,0,1,.23-.23H8.372m0-1.15H1.38A1.384,1.384,0,0,0,0,22.88v6.992a1.384,1.384,0,0,0,1.38,1.38H8.372a1.384,1.384,0,0,0,1.38-1.38V22.88a1.384,1.384,0,0,0-1.38-1.38Z" transform="translate(0 -21.5)" fill="#c6cfd6"/>
  </g>
  <g id="Group_304" data-name="Group 304" transform="translate(0 13.248)">
    <path id="Path_804" data-name="Path 804" d="M5.805,128.8A.8.8,0,0,1,5,128V121a.8.8,0,0,1,.805-.8H12.8a.8.8,0,0,1,.805.8V128a.8.8,0,0,1-.805.805Z" transform="translate(-4.425 -119.625)" fill="#c6cfd6"/>
    <path id="Path_805" data-name="Path 805" d="M8.372,116.35a.231.231,0,0,1,.23.23v6.992a.231.231,0,0,1-.23.23H1.38a.231.231,0,0,1-.23-.23V116.58a.231.231,0,0,1,.23-.23H8.372m0-1.15H1.38A1.384,1.384,0,0,0,0,116.58v6.992a1.384,1.384,0,0,0,1.38,1.38H8.372a1.384,1.384,0,0,0,1.38-1.38V116.58a1.384,1.384,0,0,0-1.38-1.38Z" transform="translate(0 -115.2)" fill="#c6cfd6"/>
  </g>
  <g id="Group_305" data-name="Group 305" transform="translate(10.347 0)">
    <path id="Path_806" data-name="Path 806" d="M100.728,16.488a.828.828,0,0,1-.575-.23l-4.945-4.945a.812.812,0,0,1,0-1.139l4.945-4.945a.808.808,0,0,1,.575-.23.828.828,0,0,1,.575.23l4.945,4.945a.812.812,0,0,1,0,1.139L101.3,16.258A.849.849,0,0,1,100.728,16.488Z" transform="translate(-94.4 -4.425)" fill="#c6cfd6"/>
    <path id="Path_807" data-name="Path 807" d="M96.3,1.15a.217.217,0,0,1,.161.069l4.945,4.945a.222.222,0,0,1,0,.322l-4.945,4.945a.222.222,0,0,1-.322,0L91.2,6.486a.222.222,0,0,1,0-.322l4.945-4.945A.2.2,0,0,1,96.3,1.15M96.3,0a1.385,1.385,0,0,0-.978.4L90.38,5.347a1.381,1.381,0,0,0,0,1.955l4.945,4.945a1.388,1.388,0,0,0,1.955,0L102.225,7.3a1.381,1.381,0,0,0,0-1.955L97.28.4A1.375,1.375,0,0,0,96.3,0Z" transform="translate(-89.975 0)" fill="#c6cfd6"/>
  </g>
  <g id="Group_306" data-name="Group 306" transform="translate(10.776 13.248)">
    <path id="Path_808" data-name="Path 808" d="M99.5,128.8A.8.8,0,0,1,98.7,128V121a.8.8,0,0,1,.805-.8H106.5a.8.8,0,0,1,.805.8V128a.8.8,0,0,1-.805.805Z" transform="translate(-98.125 -119.625)" fill="#c6cfd6"/>
    <path id="Path_809" data-name="Path 809" d="M102.072,116.35a.231.231,0,0,1,.23.23v6.992a.231.231,0,0,1-.23.23H95.08a.231.231,0,0,1-.23-.23V116.58a.231.231,0,0,1,.23-.23h6.992m0-1.15H95.08a1.384,1.384,0,0,0-1.38,1.38v6.992a1.384,1.384,0,0,0,1.38,1.38h6.992a1.384,1.384,0,0,0,1.38-1.38V116.58a1.384,1.384,0,0,0-1.38-1.38Z" transform="translate(-93.7 -115.2)" fill="#c6cfd6"/>
  </g>
</svg>
