<svg xmlns="http://www.w3.org/2000/svg" xmlns:xlink="http://www.w3.org/1999/xlink" viewBox="0 0 36 36">
  <defs>
    <style>
      .cls-1 {
        fill: url(#linear-gradient);
      }
    </style>
    <linearGradient id="linear-gradient" y1="0.5" x2="1" y2="0.5" gradientUnits="objectBoundingBox">
      <stop offset="0" stop-color="#bafc79"/>
      <stop offset="1" stop-color="#39c93e"/>
    </linearGradient>
  </defs>
  <path id="ç”µè¯" class="cls-1" d="M18,.067A18,18,0,1,0,36,18.016,17.929,17.929,0,0,0,18,.067Zm8.846,27.178-2.006,1.54c-1.9.565-6.583,1.488-12.395-6.717C5.861,13.2,8.485,8.169,9.462,7.3L11.57,5.81l.875.257,3.549,5.127-.1.821-2.058,1.436c-.925.769-.309,1.743.36,3.589a20.916,20.916,0,0,0,2.931,4.052c1.594,1.334,2.315,2.206,3.395,1.591L22.473,21.3l.773.1,3.7,4.975Z" transform="translate(0.001 -0.067)"/>
</svg>
