<svg xmlns="http://www.w3.org/2000/svg" xmlns:xlink="http://www.w3.org/1999/xlink" viewBox="0 0 34.601 36">
  <defs>
    <style>
      .cls-1 {
        fill: url(#linear-gradient);
      }
    </style>
    <linearGradient id="linear-gradient" y1="0.5" x2="1" y2="0.5" gradientUnits="objectBoundingBox">
      <stop offset="0" stop-color="#a783e6"/>
      <stop offset="1" stop-color="#964bc8"/>
    </linearGradient>
  </defs>
  <g id="文本编辑_填充_1_" data-name="文本编辑_填充 (1)" transform="translate(-65.74 -26.522)">
    <path id="Path_770" data-name="Path 770" class="cls-1" d="M77.546,54.607c.769-.955,1.675-1.83,2.535-2.705l7.028-7.153q3.279-3.336,6.554-6.672a17.938,17.938,0,0,1,1.5-1.534c.568-.447.947-.167,1.39.288.39.4.769.815,1.152,1.22.087.095.591.489.591.625l-.011-9.563a2.6,2.6,0,0,0-2.591-2.591H68.332a2.6,2.6,0,0,0-2.591,2.591V59.18a2.6,2.6,0,0,0,2.591,2.591l6.8.034,1.349-5.058A6.63,6.63,0,0,1,77.546,54.607Zm2.826-13.075H70.98a.8.8,0,0,1,0-1.606h9.392a.8.8,0,1,1,0,1.606Zm6.539-4.24H70.98a.8.8,0,0,1,0-1.606H86.912a.8.8,0,0,1,0,1.606Zm4.448-4.243H70.98a.8.8,0,0,1,0-1.606H91.359a.8.8,0,0,1,0,1.606Z"/>
    <path id="Path_771" data-name="Path 771" class="cls-1" d="M404.333,396.358l-3.739-3.739a1.083,1.083,0,0,0-1.493,0l-15.647,15.64a.527.527,0,0,0-.136.235l-1.565,5.611a.537.537,0,0,0,.515.682.863.863,0,0,0,.1-.008l6.043-1.133a.532.532,0,0,0,.28-.148l15.647-15.643A1.062,1.062,0,0,0,404.333,396.358Zm-2.421,3.1a.5.5,0,0,1-.7.023l-3.732-3.732a.515.515,0,0,1,.727-.727l3.732,3.732A.5.5,0,0,1,401.912,399.461Z" transform="translate(-304.301 -352.264)"/>
  </g>
</svg>
