<svg xmlns="http://www.w3.org/2000/svg" xmlns:xlink="http://www.w3.org/1999/xlink" viewBox="0 0 26 26">
  <defs>
    <style>
      .cls-1 {
        fill: url(#linear-gradient);
      }

      .cls-2 {
        fill: #fff;
      }
    </style>
    <linearGradient id="linear-gradient" y1="0.5" x2="1" y2="0.5" gradientUnits="objectBoundingBox">
      <stop offset="0" stop-color="#ff4b3e"/>
      <stop offset="1" stop-color="#fb2351"/>
    </linearGradient>
  </defs>
  <g id="Group_294" data-name="Group 294" transform="translate(-26 -439)">
    <path id="Subtraction_6" data-name="Subtraction 6" class="cls-1" d="M-432,23a12.914,12.914,0,0,1-9.192-3.808A12.916,12.916,0,0,1-445,10,12.915,12.915,0,0,1-441.192.808,12.914,12.914,0,0,1-432-3,12.916,12.916,0,0,1-422.807.808,12.914,12.914,0,0,1-419,10a12.915,12.915,0,0,1-3.808,9.193A12.915,12.915,0,0,1-432,23Z" transform="translate(471 442)"/>
    <path id="个人中心" class="cls-2" d="M74.584,18.89H71.4c-3.021,0-5.407,0-5.407-1.567V17.01A5.373,5.373,0,0,1,71.4,11.684h3.185a5.373,5.373,0,0,1,5.408,5.326v.313c0,1.567-2.507,1.567-5.407,1.567Zm-1.752-7.521a4.266,4.266,0,0,1-4.292-4.23,4.293,4.293,0,0,1,8.584,0A4.266,4.266,0,0,1,72.831,11.369Z" transform="translate(-33.991 440.09)"/>
  </g>
</svg>
