<svg xmlns="http://www.w3.org/2000/svg" xmlns:xlink="http://www.w3.org/1999/xlink" viewBox="0 0 26 26">
  <defs>
    <style>
      .cls-1 {
        fill: url(#linear-gradient);
      }
    </style>
    <linearGradient id="linear-gradient" y1="0.5" x2="1" y2="0.5" gradientUnits="objectBoundingBox">
      <stop offset="0" stop-color="#ff4b3e"/>
      <stop offset="1" stop-color="#fb2351"/>
    </linearGradient>
  </defs>
  <path id="Subtraction_5" data-name="Subtraction 5" class="cls-1" d="M-432,23a12.915,12.915,0,0,1-9.193-3.807A12.915,12.915,0,0,1-445,10,12.915,12.915,0,0,1-441.192.808,12.915,12.915,0,0,1-432-3,12.915,12.915,0,0,1-422.807.808,12.915,12.915,0,0,1-419,10a12.915,12.915,0,0,1-3.807,9.193A12.915,12.915,0,0,1-432,23Zm-7.974-18.417a.7.7,0,0,0-.693.694V16.37a.694.694,0,0,0,.693.693h15.253a.7.7,0,0,0,.694-.693V13.25h-6.585a.694.694,0,0,1-.7-.691V8.394a.694.694,0,0,1,.7-.691h6.585V5.277a.7.7,0,0,0-.694-.694Zm10.4,4.16a.693.693,0,0,0-.69.693v2.081a.693.693,0,0,0,.69.693h5.553a.693.693,0,0,0,.69-.693V9.437a.693.693,0,0,0-.69-.693Zm1.042,2.427a.694.694,0,0,1-.693-.693.694.694,0,0,1,.693-.693.7.7,0,0,1,.694.693A.7.7,0,0,1-428.533,11.17Z" transform="translate(445 3)"/>
</svg>
