<svg xmlns="http://www.w3.org/2000/svg" xmlns:xlink="http://www.w3.org/1999/xlink" viewBox="0 0 26 26">
  <defs>
    <style>
      .cls-1 {
        fill: url(#linear-gradient);
      }
    </style>
    <linearGradient id="linear-gradient" y1="0.5" x2="1" y2="0.5" gradientUnits="objectBoundingBox">
      <stop offset="0" stop-color="#1fbbec"/>
      <stop offset="1" stop-color="#2987d9"/>
    </linearGradient>
  </defs>
  <path id="Subtraction_2" data-name="Subtraction 2" class="cls-1" d="M-432,23a12.914,12.914,0,0,1-9.192-3.808A12.916,12.916,0,0,1-445,10,12.915,12.915,0,0,1-441.192.808,12.914,12.914,0,0,1-432-3,12.916,12.916,0,0,1-422.807.808,12.914,12.914,0,0,1-419,10a12.915,12.915,0,0,1-3.808,9.193A12.915,12.915,0,0,1-432,23Zm-7.944-17.425a.724.724,0,0,0-.723.723V17.059a.724.724,0,0,0,.723.723h15.889a.723.723,0,0,0,.722-.723V14.315h-4.586a2.639,2.639,0,0,1-2.636-2.636,2.64,2.64,0,0,1,2.636-2.637h4.586V6.3a.723.723,0,0,0-.722-.723Zm12.025,4.55a1.555,1.555,0,0,0-1.553,1.553,1.554,1.554,0,0,0,1.553,1.552,1.555,1.555,0,0,0,1.553-1.552A1.555,1.555,0,0,0-427.919,10.126Zm1.383-8.792a.6.6,0,0,0-.163.023L-439.221,4.9h14.154l-.9-3.138A.6.6,0,0,0-426.536,1.333Z" transform="translate(445 3)"/>
</svg>
